<mxfile host="Electron" modified="2024-07-07T13:51:18.931Z" agent="Mozilla/5.0 (Windows NT 10.0; Win64; x64) AppleWebKit/537.36 (KHTML, like Gecko) draw.io/24.5.3 Chrome/124.0.6367.207 Electron/30.0.6 Safari/537.36" etag="ejuhZsq0qxrTkyNzTn6l" version="24.5.3" type="device">
  <diagram name="Page-1" id="Hyj0w5Wk2uv5xPE97oOx">
    <mxGraphModel dx="1050" dy="621" grid="1" gridSize="10" guides="1" tooltips="1" connect="1" arrows="1" fold="1" page="1" pageScale="1" pageWidth="900" pageHeight="1600" math="0" shadow="0">
      <root>
        <mxCell id="0" />
        <mxCell id="1" parent="0" />
        <mxCell id="LJ2nVXtX0968bq8rBRwh-8" style="edgeStyle=orthogonalEdgeStyle;rounded=0;orthogonalLoop=1;jettySize=auto;html=1;entryX=0.5;entryY=1;entryDx=0;entryDy=0;fontSize=15;" parent="1" source="LJ2nVXtX0968bq8rBRwh-1" target="LJ2nVXtX0968bq8rBRwh-6" edge="1">
          <mxGeometry relative="1" as="geometry">
            <Array as="points">
              <mxPoint x="320" y="410" />
              <mxPoint x="430" y="410" />
            </Array>
          </mxGeometry>
        </mxCell>
        <mxCell id="LJ2nVXtX0968bq8rBRwh-1" value="&lt;font style=&quot;font-size: 15px;&quot;&gt;-&lt;/font&gt;" style="ellipse;whiteSpace=wrap;html=1;aspect=fixed;fontSize=15;fillColor=#ffe6cc;strokeColor=#d79b00;" parent="1" vertex="1">
          <mxGeometry x="280" y="420" width="80" height="80" as="geometry" />
        </mxCell>
        <mxCell id="LJ2nVXtX0968bq8rBRwh-3" style="edgeStyle=orthogonalEdgeStyle;rounded=0;orthogonalLoop=1;jettySize=auto;html=1;entryX=0;entryY=1;entryDx=0;entryDy=0;fontSize=15;" parent="1" source="LJ2nVXtX0968bq8rBRwh-2" target="LJ2nVXtX0968bq8rBRwh-1" edge="1">
          <mxGeometry relative="1" as="geometry" />
        </mxCell>
        <mxCell id="LJ2nVXtX0968bq8rBRwh-2" value="a exponent" style="text;html=1;align=center;verticalAlign=middle;whiteSpace=wrap;rounded=0;fontSize=15;" parent="1" vertex="1">
          <mxGeometry x="190" y="530" width="90" height="30" as="geometry" />
        </mxCell>
        <mxCell id="LJ2nVXtX0968bq8rBRwh-5" style="edgeStyle=orthogonalEdgeStyle;rounded=0;orthogonalLoop=1;jettySize=auto;html=1;entryX=1;entryY=1;entryDx=0;entryDy=0;fontSize=15;" parent="1" source="LJ2nVXtX0968bq8rBRwh-4" target="LJ2nVXtX0968bq8rBRwh-1" edge="1">
          <mxGeometry relative="1" as="geometry" />
        </mxCell>
        <mxCell id="LJ2nVXtX0968bq8rBRwh-4" value="127" style="text;html=1;align=center;verticalAlign=middle;whiteSpace=wrap;rounded=0;fontSize=15;" parent="1" vertex="1">
          <mxGeometry x="360" y="530" width="60" height="30" as="geometry" />
        </mxCell>
        <mxCell id="gfWQbJ1DjxY0iSCb5F4e-6" style="edgeStyle=orthogonalEdgeStyle;rounded=0;orthogonalLoop=1;jettySize=auto;html=1;entryX=0.5;entryY=1;entryDx=0;entryDy=0;" parent="1" source="LJ2nVXtX0968bq8rBRwh-6" target="gfWQbJ1DjxY0iSCb5F4e-5" edge="1">
          <mxGeometry relative="1" as="geometry" />
        </mxCell>
        <mxCell id="LJ2nVXtX0968bq8rBRwh-6" value="&lt;font style=&quot;font-size: 15px;&quot;&gt;+&lt;/font&gt;" style="ellipse;whiteSpace=wrap;html=1;aspect=fixed;fontSize=15;fillColor=#ffe6cc;strokeColor=#d79b00;" parent="1" vertex="1">
          <mxGeometry x="390" y="300" width="80" height="80" as="geometry" />
        </mxCell>
        <mxCell id="LJ2nVXtX0968bq8rBRwh-9" style="edgeStyle=orthogonalEdgeStyle;rounded=0;orthogonalLoop=1;jettySize=auto;html=1;entryX=0.5;entryY=1;entryDx=0;entryDy=0;fontSize=15;" parent="1" source="LJ2nVXtX0968bq8rBRwh-7" target="LJ2nVXtX0968bq8rBRwh-6" edge="1">
          <mxGeometry relative="1" as="geometry">
            <Array as="points">
              <mxPoint x="525" y="410" />
              <mxPoint x="430" y="410" />
            </Array>
          </mxGeometry>
        </mxCell>
        <mxCell id="LJ2nVXtX0968bq8rBRwh-7" value="b exponent" style="text;html=1;align=center;verticalAlign=middle;whiteSpace=wrap;rounded=0;fontSize=15;" parent="1" vertex="1">
          <mxGeometry x="480" y="520" width="90" height="30" as="geometry" />
        </mxCell>
        <mxCell id="gfWQbJ1DjxY0iSCb5F4e-2" style="edgeStyle=orthogonalEdgeStyle;rounded=0;orthogonalLoop=1;jettySize=auto;html=1;entryX=0.5;entryY=1;entryDx=0;entryDy=0;" parent="1" source="LJ2nVXtX0968bq8rBRwh-10" target="gfWQbJ1DjxY0iSCb5F4e-1" edge="1">
          <mxGeometry relative="1" as="geometry" />
        </mxCell>
        <mxCell id="gfWQbJ1DjxY0iSCb5F4e-3" style="edgeStyle=orthogonalEdgeStyle;rounded=0;orthogonalLoop=1;jettySize=auto;html=1;entryX=1;entryY=0.5;entryDx=0;entryDy=0;" parent="1" source="LJ2nVXtX0968bq8rBRwh-10" target="gfWQbJ1DjxY0iSCb5F4e-1" edge="1">
          <mxGeometry relative="1" as="geometry">
            <Array as="points">
              <mxPoint x="730" y="280" />
              <mxPoint x="800" y="280" />
              <mxPoint x="800" y="220" />
            </Array>
          </mxGeometry>
        </mxCell>
        <mxCell id="gfWQbJ1DjxY0iSCb5F4e-4" value="MSB" style="edgeLabel;html=1;align=center;verticalAlign=middle;resizable=0;points=[];" parent="gfWQbJ1DjxY0iSCb5F4e-3" vertex="1" connectable="0">
          <mxGeometry x="0.2022" y="-1" relative="1" as="geometry">
            <mxPoint x="-1" y="-12" as="offset" />
          </mxGeometry>
        </mxCell>
        <mxCell id="gfWQbJ1DjxY0iSCb5F4e-7" style="edgeStyle=orthogonalEdgeStyle;rounded=0;orthogonalLoop=1;jettySize=auto;html=1;entryX=1;entryY=1;entryDx=0;entryDy=0;" parent="1" source="LJ2nVXtX0968bq8rBRwh-10" target="gfWQbJ1DjxY0iSCb5F4e-5" edge="1">
          <mxGeometry relative="1" as="geometry">
            <Array as="points">
              <mxPoint x="730" y="290" />
              <mxPoint x="458" y="290" />
            </Array>
          </mxGeometry>
        </mxCell>
        <mxCell id="LJ2nVXtX0968bq8rBRwh-10" value="*" style="ellipse;whiteSpace=wrap;html=1;aspect=fixed;fontSize=15;fillColor=#ffe6cc;strokeColor=#d79b00;" parent="1" vertex="1">
          <mxGeometry x="690" y="300" width="80" height="80" as="geometry" />
        </mxCell>
        <mxCell id="LJ2nVXtX0968bq8rBRwh-13" style="edgeStyle=orthogonalEdgeStyle;rounded=0;orthogonalLoop=1;jettySize=auto;html=1;entryX=0;entryY=1;entryDx=0;entryDy=0;fontSize=15;" parent="1" source="LJ2nVXtX0968bq8rBRwh-11" target="LJ2nVXtX0968bq8rBRwh-10" edge="1">
          <mxGeometry relative="1" as="geometry" />
        </mxCell>
        <mxCell id="LJ2nVXtX0968bq8rBRwh-11" value="{1,a mantissa}" style="text;html=1;align=center;verticalAlign=middle;whiteSpace=wrap;rounded=0;fontSize=15;" parent="1" vertex="1">
          <mxGeometry x="600" y="520" width="100" height="30" as="geometry" />
        </mxCell>
        <mxCell id="LJ2nVXtX0968bq8rBRwh-14" style="edgeStyle=orthogonalEdgeStyle;rounded=0;orthogonalLoop=1;jettySize=auto;html=1;entryX=1;entryY=1;entryDx=0;entryDy=0;fontSize=15;" parent="1" source="LJ2nVXtX0968bq8rBRwh-12" target="LJ2nVXtX0968bq8rBRwh-10" edge="1">
          <mxGeometry relative="1" as="geometry" />
        </mxCell>
        <mxCell id="LJ2nVXtX0968bq8rBRwh-12" value="{1,b mantissa}" style="text;html=1;align=center;verticalAlign=middle;whiteSpace=wrap;rounded=0;fontSize=15;" parent="1" vertex="1">
          <mxGeometry x="750" y="520" width="100" height="30" as="geometry" />
        </mxCell>
        <mxCell id="gfWQbJ1DjxY0iSCb5F4e-10" style="edgeStyle=orthogonalEdgeStyle;rounded=0;orthogonalLoop=1;jettySize=auto;html=1;entryX=1;entryY=1;entryDx=0;entryDy=0;" parent="1" source="gfWQbJ1DjxY0iSCb5F4e-1" target="gfWQbJ1DjxY0iSCb5F4e-9" edge="1">
          <mxGeometry relative="1" as="geometry">
            <Array as="points">
              <mxPoint x="730" y="150" />
              <mxPoint x="592" y="150" />
            </Array>
          </mxGeometry>
        </mxCell>
        <mxCell id="gfWQbJ1DjxY0iSCb5F4e-20" value="mul result [46:23]" style="edgeLabel;html=1;align=center;verticalAlign=middle;resizable=0;points=[];" parent="gfWQbJ1DjxY0iSCb5F4e-10" vertex="1" connectable="0">
          <mxGeometry x="-0.3956" y="2" relative="1" as="geometry">
            <mxPoint x="-1" as="offset" />
          </mxGeometry>
        </mxCell>
        <mxCell id="gfWQbJ1DjxY0iSCb5F4e-1" value="&amp;gt;&amp;gt;" style="ellipse;whiteSpace=wrap;html=1;aspect=fixed;fillColor=#ffe6cc;strokeColor=#d79b00;" parent="1" vertex="1">
          <mxGeometry x="690" y="180" width="80" height="80" as="geometry" />
        </mxCell>
        <mxCell id="gfWQbJ1DjxY0iSCb5F4e-11" style="edgeStyle=orthogonalEdgeStyle;rounded=0;orthogonalLoop=1;jettySize=auto;html=1;entryX=0.5;entryY=1;entryDx=0;entryDy=0;" parent="1" source="gfWQbJ1DjxY0iSCb5F4e-5" target="gfWQbJ1DjxY0iSCb5F4e-9" edge="1">
          <mxGeometry relative="1" as="geometry" />
        </mxCell>
        <mxCell id="gfWQbJ1DjxY0iSCb5F4e-5" value="&lt;font style=&quot;font-size: 15px;&quot;&gt;+&lt;/font&gt;" style="ellipse;whiteSpace=wrap;html=1;aspect=fixed;fontSize=15;fillColor=#ffe6cc;strokeColor=#d79b00;" parent="1" vertex="1">
          <mxGeometry x="400" y="180" width="80" height="80" as="geometry" />
        </mxCell>
        <mxCell id="gfWQbJ1DjxY0iSCb5F4e-12" style="edgeStyle=orthogonalEdgeStyle;rounded=0;orthogonalLoop=1;jettySize=auto;html=1;entryX=0;entryY=1;entryDx=0;entryDy=0;" parent="1" source="gfWQbJ1DjxY0iSCb5F4e-8" target="gfWQbJ1DjxY0iSCb5F4e-9" edge="1">
          <mxGeometry relative="1" as="geometry">
            <Array as="points">
              <mxPoint x="230" y="170" />
              <mxPoint x="398" y="170" />
            </Array>
          </mxGeometry>
        </mxCell>
        <mxCell id="gfWQbJ1DjxY0iSCb5F4e-8" value="" style="verticalLabelPosition=bottom;shadow=0;dashed=0;align=center;html=1;verticalAlign=top;shape=mxgraph.electrical.logic_gates.logic_gate;operation=xor;rotation=-90;fillColor=#f8cecc;strokeColor=#b85450;" parent="1" vertex="1">
          <mxGeometry x="180" y="200" width="100" height="60" as="geometry" />
        </mxCell>
        <mxCell id="gfWQbJ1DjxY0iSCb5F4e-19" style="edgeStyle=orthogonalEdgeStyle;rounded=0;orthogonalLoop=1;jettySize=auto;html=1;" parent="1" source="gfWQbJ1DjxY0iSCb5F4e-9" edge="1">
          <mxGeometry relative="1" as="geometry">
            <mxPoint x="440" y="10" as="targetPoint" />
          </mxGeometry>
        </mxCell>
        <mxCell id="gfWQbJ1DjxY0iSCb5F4e-9" value="Concatenate" style="ellipse;whiteSpace=wrap;html=1;fillColor=#e1d5e7;strokeColor=#9673a6;" parent="1" vertex="1">
          <mxGeometry x="380" y="50" width="120" height="80" as="geometry" />
        </mxCell>
        <mxCell id="gfWQbJ1DjxY0iSCb5F4e-14" value="a sign" style="text;html=1;align=center;verticalAlign=middle;whiteSpace=wrap;rounded=0;" parent="1" vertex="1">
          <mxGeometry x="130" y="310" width="60" height="30" as="geometry" />
        </mxCell>
        <mxCell id="gfWQbJ1DjxY0iSCb5F4e-16" value="b sign" style="text;html=1;align=center;verticalAlign=middle;whiteSpace=wrap;rounded=0;" parent="1" vertex="1">
          <mxGeometry x="280" y="310" width="60" height="30" as="geometry" />
        </mxCell>
        <mxCell id="gfWQbJ1DjxY0iSCb5F4e-17" value="" style="endArrow=none;html=1;rounded=0;exitX=0.5;exitY=0;exitDx=0;exitDy=0;entryX=0;entryY=0.75;entryDx=0;entryDy=0;entryPerimeter=0;" parent="1" source="gfWQbJ1DjxY0iSCb5F4e-16" target="gfWQbJ1DjxY0iSCb5F4e-8" edge="1">
          <mxGeometry width="50" height="50" relative="1" as="geometry">
            <mxPoint x="350" y="310" as="sourcePoint" />
            <mxPoint x="400" y="260" as="targetPoint" />
            <Array as="points">
              <mxPoint x="310" y="290" />
              <mxPoint x="245" y="290" />
            </Array>
          </mxGeometry>
        </mxCell>
        <mxCell id="gfWQbJ1DjxY0iSCb5F4e-18" value="" style="endArrow=none;html=1;rounded=0;exitX=0;exitY=0.25;exitDx=0;exitDy=0;exitPerimeter=0;entryX=0.5;entryY=0;entryDx=0;entryDy=0;" parent="1" source="gfWQbJ1DjxY0iSCb5F4e-8" target="gfWQbJ1DjxY0iSCb5F4e-14" edge="1">
          <mxGeometry width="50" height="50" relative="1" as="geometry">
            <mxPoint x="350" y="310" as="sourcePoint" />
            <mxPoint x="400" y="260" as="targetPoint" />
            <Array as="points">
              <mxPoint x="215" y="290" />
              <mxPoint x="160" y="290" />
            </Array>
          </mxGeometry>
        </mxCell>
      </root>
    </mxGraphModel>
  </diagram>
</mxfile>
